<svg width="143" height="10" viewBox="0 0 143 10" fill="none" xmlns="http://www.w3.org/2000/svg">
<path d="M8.52043 7.53782L8.90831 7.88691C8.79626 8.0162 8.63248 8.16705 8.417 8.33944C8.20151 8.51183 7.92999 8.6756 7.60245 8.83075C7.28352 8.97729 6.90426 9.10227 6.46466 9.2057C6.03368 9.30914 5.54237 9.36086 4.99072 9.36086C4.12014 9.36086 3.37024 9.22725 2.74101 8.96005C2.11178 8.68422 1.5946 8.32651 1.18948 7.88691C0.784365 7.43869 0.48268 6.93014 0.284429 6.36124C0.0947988 5.78373 -1.64889e-05 5.19329 -1.64889e-05 4.58992C-1.64889e-05 3.89174 0.120658 3.26251 0.362006 2.70224C0.603354 2.13335 0.943827 1.65065 1.38342 1.25415C1.82302 0.849028 2.34882 0.538724 2.96081 0.323235C3.58142 0.107746 4.26667 1.01463e-06 5.01657 1.01463e-06C5.53375 1.01463e-06 5.9949 0.0517183 6.40002 0.155153C6.80514 0.258588 7.15854 0.400811 7.46022 0.581822C7.76191 0.762833 8.01188 0.978322 8.21013 1.22829C8.417 1.47826 8.58508 1.74977 8.71437 2.04284H7.7576C7.69726 1.86183 7.58952 1.68513 7.43436 1.51274C7.28783 1.33172 7.09389 1.17226 6.85254 1.03435C6.61982 0.896436 6.3483 0.784382 6.03799 0.698186C5.73631 0.61199 5.40015 0.568892 5.0295 0.568892C4.48647 0.568892 3.98223 0.668017 3.51677 0.866268C3.05993 1.06452 2.66343 1.34034 2.32727 1.69375C1.9911 2.04715 1.72821 2.46951 1.53858 2.96082C1.35757 3.44352 1.26706 3.97793 1.26706 4.56406C1.26706 5.11572 1.35326 5.64582 1.52565 6.15438C1.70666 6.66293 1.96956 7.11115 2.31434 7.49903C2.65912 7.88691 3.0901 8.19721 3.60727 8.42994C4.12445 8.66267 4.7192 8.77903 5.39153 8.77903C6.59827 8.77903 7.64123 8.3653 8.52043 7.53782ZM15.8713 4.68043C15.8713 4.18911 15.9618 3.66763 16.1428 3.11598C16.3324 2.56432 16.6255 2.06008 17.022 1.60324C17.4185 1.13778 17.9227 0.754213 18.5347 0.452528C19.1467 0.150843 19.8794 1.01463e-06 20.7327 1.01463e-06C21.5947 1.01463e-06 22.3403 0.155153 22.9695 0.465457C23.6073 0.767143 24.1331 1.15071 24.5469 1.61617C24.9606 2.08163 25.2666 2.59018 25.4649 3.14183C25.6631 3.68487 25.7622 4.19773 25.7622 4.68043C25.7622 4.99935 25.7148 5.33552 25.62 5.68892C25.5338 6.04232 25.4002 6.39572 25.2192 6.74913C25.0468 7.09391 24.8227 7.42576 24.5469 7.74469C24.271 8.05499 23.9435 8.33082 23.5642 8.57217C23.1936 8.81351 22.7712 9.00745 22.2972 9.15399C21.8317 9.2919 21.3102 9.36086 20.7327 9.36086C19.8794 9.36086 19.1467 9.21001 18.5347 8.90833C17.9227 8.59802 17.4185 8.21014 17.022 7.74469C16.6255 7.27923 16.3324 6.77498 16.1428 6.23195C15.9618 5.6803 15.8713 5.16312 15.8713 4.68043ZM17.1384 4.68043C17.1384 5.2838 17.2289 5.83976 17.4099 6.34832C17.5995 6.84825 17.8538 7.27923 18.1727 7.64125C18.5002 8.00327 18.8838 8.28772 19.3234 8.49459C19.763 8.69284 20.2414 8.79196 20.7586 8.79196C21.2671 8.79196 21.7455 8.69284 22.1937 8.49459C22.6506 8.28772 23.0471 8.00327 23.3832 7.64125C23.728 7.27923 23.9995 6.84825 24.1978 6.34832C24.396 5.83976 24.4952 5.2838 24.4952 4.68043C24.4952 4.07706 24.396 3.52541 24.1978 3.02547C23.9995 2.51692 23.728 2.08163 23.3832 1.71961C23.0471 1.35758 22.6506 1.07745 22.1937 0.879197C21.7455 0.672327 21.2671 0.568892 20.7586 0.568892C20.2414 0.568892 19.763 0.672327 19.3234 0.879197C18.8838 1.07745 18.5002 1.35758 18.1727 1.71961C17.8538 2.08163 17.5995 2.51692 17.4099 3.02547C17.2289 3.52541 17.1384 4.07706 17.1384 4.68043ZM34.0239 9.2057V0.155153H35.2005V8.49459H39.868V9.2057H34.0239ZM47.8623 9.2057V0.155153H49.0389V8.49459H53.7064V9.2057H47.8623ZM61.7008 0.155153H67.5449V0.866268H62.8774V4.11154H66.8855V4.70629H62.8774V8.49459H67.5449V9.2057H61.7008V0.155153ZM83.1546 7.53782L83.5425 7.88691C83.4305 8.0162 83.2667 8.16705 83.0512 8.33944C82.8357 8.51183 82.5642 8.6756 82.2367 8.83075C81.9177 8.97729 81.5385 9.10227 81.0989 9.2057C80.6679 9.30914 80.1766 9.36086 79.6249 9.36086C78.7544 9.36086 78.0045 9.22725 77.3752 8.96005C76.746 8.68422 76.2288 8.32651 75.8237 7.88691C75.4186 7.43869 75.1169 6.93014 74.9186 6.36124C74.729 5.78373 74.6342 5.19329 74.6342 4.58992C74.6342 3.89174 74.7549 3.26251 74.9962 2.70224C75.2376 2.13335 75.578 1.65065 76.0176 1.25415C76.4572 0.849028 76.983 0.538724 77.595 0.323235C78.2156 0.107746 78.9009 1.01463e-06 79.6508 1.01463e-06C80.168 1.01463e-06 80.6291 0.0517183 81.0342 0.155153C81.4394 0.258588 81.7928 0.400811 82.0944 0.581822C82.3961 0.762833 82.6461 0.978322 82.8443 1.22829C83.0512 1.47826 83.2193 1.74977 83.3486 2.04284H82.3918C82.3315 1.86183 82.2237 1.68513 82.0686 1.51274C81.922 1.33172 81.7281 1.17226 81.4868 1.03435C81.254 0.896436 80.9825 0.784382 80.6722 0.698186C80.3705 0.61199 80.0344 0.568892 79.6637 0.568892C79.1207 0.568892 78.6164 0.668017 78.151 0.866268C77.6941 1.06452 77.2976 1.34034 76.9615 1.69375C76.6253 2.04715 76.3624 2.46951 76.1728 2.96082C75.9918 3.44352 75.9013 3.97793 75.9013 4.56406C75.9013 5.11572 75.9875 5.64582 76.1599 6.15438C76.3409 6.66293 76.6038 7.11115 76.9486 7.49903C77.2933 7.88691 77.7243 8.19721 78.2415 8.42994C78.7587 8.66267 79.3534 8.77903 80.0257 8.77903C81.2325 8.77903 82.2755 8.3653 83.1546 7.53782ZM94.7592 9.2057H93.5827V0.866268H90.1176V0.155153H98.2243V0.866268H94.7592V9.2057ZM106.612 0.155153H107.789V9.2057H106.612V0.155153ZM116.566 4.68043C116.566 4.18911 116.657 3.66763 116.838 3.11598C117.027 2.56432 117.32 2.06008 117.717 1.60324C118.113 1.13778 118.618 0.754213 119.23 0.452528C119.842 0.150843 120.574 1.01463e-06 121.428 1.01463e-06C122.29 1.01463e-06 123.035 0.155153 123.664 0.465457C124.302 0.767143 124.828 1.15071 125.242 1.61617C125.656 2.08163 125.962 2.59018 126.16 3.14183C126.358 3.68487 126.457 4.19773 126.457 4.68043C126.457 4.99935 126.41 5.33552 126.315 5.68892C126.229 6.04232 126.095 6.39572 125.914 6.74913C125.742 7.09391 125.518 7.42576 125.242 7.74469C124.966 8.05499 124.638 8.33082 124.259 8.57217C123.889 8.81351 123.466 9.00745 122.992 9.15399C122.527 9.2919 122.005 9.36086 121.428 9.36086C120.574 9.36086 119.842 9.21001 119.23 8.90833C118.618 8.59802 118.113 8.21014 117.717 7.74469C117.32 7.27923 117.027 6.77498 116.838 6.23195C116.657 5.6803 116.566 5.16312 116.566 4.68043ZM117.833 4.68043C117.833 5.2838 117.924 5.83976 118.105 6.34832C118.294 6.84825 118.549 7.27923 118.868 7.64125C119.195 8.00327 119.579 8.28772 120.018 8.49459C120.458 8.69284 120.936 8.79196 121.454 8.79196C121.962 8.79196 122.44 8.69284 122.889 8.49459C123.346 8.28772 123.742 8.00327 124.078 7.64125C124.423 7.27923 124.694 6.84825 124.893 6.34832C125.091 5.83976 125.19 5.2838 125.19 4.68043C125.19 4.07706 125.091 3.52541 124.893 3.02547C124.694 2.51692 124.423 2.08163 124.078 1.71961C123.742 1.35758 123.346 1.07745 122.889 0.879197C122.44 0.672327 121.962 0.568892 121.454 0.568892C120.936 0.568892 120.458 0.672327 120.018 0.879197C119.579 1.07745 119.195 1.35758 118.868 1.71961C118.549 2.08163 118.294 2.51692 118.105 3.02547C117.924 3.52541 117.833 4.07706 117.833 4.68043ZM142.011 0.155153H142.606V9.36086H142.541L135.365 2.2885H135.314V9.2057H134.719V1.01463e-06H134.783L141.959 7.07236H142.011V0.155153Z" fill="#FCFCFC"/>
</svg>
