<svg width="160" height="33" viewBox="0 0 160 33" fill="none" xmlns="http://www.w3.org/2000/svg">
<path d="M11.0941 32.2357C7.57751 32.2357 4.84933 31.238 2.90961 29.2424C0.969879 27.2469 1.56704e-05 24.5466 1.56704e-05 21.1416C1.56704e-05 18.6856 0.34191 16.383 1.0257 14.234C1.70949 12.0849 2.64446 10.1382 3.83063 8.39385C5.03075 6.64949 6.4053 5.14934 7.95429 3.8934C9.50328 2.63746 11.15 1.67458 12.8943 1.00474C14.6526 0.334911 16.4249 -6.06336e-06 18.2111 -6.06336e-06C20.416 -6.06336e-06 22.3487 0.453528 24.0094 1.36059C25.684 2.25371 26.9818 3.53058 27.9028 5.19121C28.8378 6.85184 29.3052 8.81947 29.3052 11.0941C29.3052 14.1642 28.8029 16.99 27.7981 19.5717C26.7934 22.1394 25.4258 24.3722 23.6954 26.27C21.9789 28.1539 20.0322 29.6192 17.8553 30.6658C15.6783 31.7124 13.4246 32.2357 11.0941 32.2357ZM11.0941 31.9427C12.2384 31.9427 13.313 31.5659 14.3177 30.8123C15.3364 30.0588 16.2714 29.0331 17.1226 27.7353C17.9878 26.4235 18.7554 24.9373 19.4252 23.2767C20.109 21.6161 20.6881 19.8647 21.1626 18.0227C21.637 16.1807 21.9929 14.3456 22.2301 12.5175C22.4813 10.6755 22.6069 8.94506 22.6069 7.3263C22.6069 6.41923 22.5301 5.54705 22.3766 4.70976C22.2371 3.87247 21.9929 3.12589 21.644 2.47001C21.3091 1.80017 20.8556 1.26989 20.2834 0.879152C19.7252 0.488415 19.0345 0.293047 18.2111 0.293047C17.1366 0.293047 16.1039 0.669829 15.1131 1.42339C14.1363 2.17695 13.2153 3.20961 12.3501 4.52137C11.4988 5.81917 10.7243 7.29839 10.0266 8.95902C9.3428 10.6196 8.74972 12.371 8.24734 14.213C7.75892 16.0551 7.37516 17.8971 7.09607 19.7392C6.83092 21.5672 6.69835 23.2907 6.69835 24.9094C6.69835 26.3886 6.83092 27.6516 7.09607 28.6982C7.37516 29.7448 7.83567 30.5472 8.4776 31.1054C9.11952 31.6636 9.9917 31.9427 11.0941 31.9427ZM39.1948 32.2357C37.0178 32.2357 35.3293 31.6496 34.1291 30.4774C32.943 29.3052 32.3499 27.7074 32.3499 25.6839C32.3499 24.0791 32.6778 22.4813 33.3337 20.8904C34.0035 19.2856 34.9176 17.8273 36.0758 16.5156C37.2341 15.1899 38.5598 14.1293 40.053 13.3339C41.5601 12.5384 43.1649 12.1407 44.8674 12.1407C46.1094 12.1407 47.1979 12.371 48.1328 12.8315C49.0678 13.2781 49.7935 13.8572 50.3098 14.5689C50.8261 15.2666 51.0843 15.9923 51.0843 16.7458C51.0843 17.6948 50.7843 18.4693 50.1842 19.0693C49.5841 19.6694 48.8515 19.9694 47.9863 19.9694C47.2048 19.9694 46.5071 19.7461 45.8931 19.2996C45.2791 18.8391 44.9721 18.1413 44.9721 17.2063C44.9721 16.3691 45.2581 15.6713 45.8303 15.1131C46.4164 14.541 47.1211 14.2549 47.9445 14.2549C48.4468 14.2549 48.9352 14.3456 49.4097 14.527C49.8842 14.7084 50.2749 14.9875 50.5819 15.3643C50.8889 15.7271 51.0424 16.1876 51.0424 16.7458H50.7703C50.7703 16.0341 50.5331 15.3713 50.0586 14.7573C49.5981 14.1433 49.005 13.6479 48.2794 13.2711C47.5537 12.8803 46.7862 12.685 45.9768 12.685C44.9302 12.685 43.9673 13.0618 43.0882 13.8153C42.209 14.5549 41.4275 15.5318 40.7437 16.7458C40.06 17.9599 39.4738 19.2786 38.9854 20.702C38.497 22.1115 38.1272 23.5 37.876 24.8676C37.6248 26.2212 37.4992 27.4074 37.4992 28.4261C37.4992 29.4448 37.7225 30.2472 38.1691 30.8333C38.6296 31.4054 39.2855 31.6915 40.1367 31.6915C41.3368 31.6915 42.4602 31.4333 43.5068 30.917C44.5534 30.4007 45.5024 29.7308 46.3536 28.9075C47.2188 28.0702 47.9654 27.1771 48.5934 26.2282L48.8655 26.3956C48.2096 27.3725 47.4211 28.3074 46.5001 29.2006C45.5931 30.0937 44.5325 30.8263 43.3184 31.3984C42.1183 31.9566 40.7437 32.2357 39.1948 32.2357ZM59.2809 32.2357C58.2064 32.2357 57.3482 32.0892 56.7062 31.7962C56.0783 31.4892 55.6247 31.1054 55.3456 30.6449C55.0805 30.1704 54.9479 29.675 54.9479 29.1587C54.9479 28.8377 54.9968 28.454 55.0945 28.0074C55.2061 27.5469 55.3177 27.1073 55.4294 26.6887L60.3066 8.37292H65.749L59.9298 29.8704C59.888 30.0099 59.8461 30.1774 59.8042 30.3728C59.7624 30.5542 59.7414 30.7426 59.7414 30.9379C59.7414 31.3705 60.0345 31.5868 60.6206 31.5868C61.0392 31.5868 61.4928 31.4822 61.9812 31.2729C62.4836 31.0635 62.9999 30.7147 63.5302 30.2262C64.0744 29.7378 64.6256 29.061 65.1838 28.1958C65.742 27.3166 66.2863 26.2212 66.8165 24.9094L67.1305 24.9932C66.4607 26.598 65.756 27.9376 65.0164 29.0122C64.2907 30.0867 63.4604 30.8961 62.5254 31.4403C61.6044 31.9706 60.5229 32.2357 59.2809 32.2357ZM55.0735 12.8734V12.5594H68.4702V12.8734H55.0735ZM77.9914 32.2357C75.7168 32.2357 73.9724 31.6636 72.7584 30.5193C71.5443 29.375 70.9372 27.7562 70.9372 25.663C70.9372 23.9047 71.2722 22.2161 71.942 20.5974C72.6118 18.9786 73.5259 17.5343 74.6841 16.2644C75.8424 14.9945 77.1681 13.9897 78.6613 13.2501C80.1684 12.5105 81.7523 12.1407 83.4129 12.1407C85.6875 12.1407 87.4459 12.7338 88.6878 13.92C89.9438 15.1061 90.5717 16.7458 90.5717 18.8391C90.5717 20.5555 90.2438 22.2161 89.5879 23.821C88.932 25.4258 88.025 26.8631 86.8667 28.133C85.7224 29.3889 84.3897 30.3867 82.8687 31.1263C81.3476 31.8659 79.7218 32.2357 77.9914 32.2357ZM77.7402 31.9218C78.3124 31.9218 78.8985 31.6357 79.4986 31.0635C80.0986 30.4774 80.6847 29.696 81.2569 28.7191C81.843 27.7423 82.3942 26.6538 82.9105 25.4537C83.4269 24.2396 83.8804 22.9906 84.2711 21.7068C84.6619 20.409 84.9689 19.16 85.1921 17.9599C85.4154 16.7598 85.5271 15.6992 85.5271 14.7782C85.5271 14.0525 85.3736 13.4874 85.0665 13.0827C84.7735 12.678 84.306 12.4756 83.6641 12.4756C83.0919 12.4756 82.5058 12.7617 81.9058 13.3339C81.3057 13.906 80.7126 14.6805 80.1265 15.6574C79.5404 16.6342 78.9892 17.7297 78.4729 18.9437C77.9705 20.1578 77.5239 21.4068 77.1332 22.6906C76.7425 23.9745 76.4355 25.2164 76.2122 26.4166C75.9889 27.6167 75.8773 28.6842 75.8773 29.6192C75.8773 30.3309 76.0238 30.8961 76.3168 31.3147C76.6239 31.7194 77.0983 31.9218 77.7402 31.9218ZM102.303 32.2357C101.172 32.2357 100.119 31.9985 99.1419 31.524C98.165 31.0356 97.2928 30.3797 96.5253 29.5564C95.7578 28.7331 95.1298 27.812 94.6414 26.7933L101.633 0.732626H98.3674V0.41864H107.138L99.4349 29.054C99.4349 29.8215 99.5535 30.4704 99.7908 31.0007C100.042 31.531 100.53 31.7962 101.256 31.7962C101.982 31.7962 102.7 31.4543 103.412 30.7705C104.124 30.0867 104.794 29.1866 105.422 28.0702C106.05 26.9399 106.608 25.7049 107.096 24.3652C107.585 23.0255 107.968 21.6928 108.247 20.3671C108.527 19.0275 108.666 17.8273 108.666 16.7668C108.666 15.6783 108.499 14.8201 108.164 14.1921C107.829 13.5502 107.354 13.2292 106.74 13.2292C106.043 13.2292 105.408 13.5432 104.835 14.1712C104.263 14.7852 103.74 15.5946 103.266 16.5993C102.791 17.5901 102.365 18.6716 101.989 19.8438C101.612 21.0021 101.277 22.1324 100.984 23.2348H100.691C101.165 21.5324 101.633 20.0043 102.093 18.6507C102.568 17.2831 103.084 16.1179 103.642 15.155C104.214 14.1921 104.877 13.4595 105.631 12.9571C106.398 12.4408 107.312 12.1826 108.373 12.1826C110.243 12.1826 111.68 12.8385 112.685 14.1502C113.704 15.462 114.213 17.1994 114.213 19.3624C114.213 20.9951 113.899 22.579 113.271 24.114C112.643 25.649 111.778 27.0306 110.676 28.2586C109.573 29.4727 108.303 30.4425 106.866 31.1682C105.429 31.8799 103.907 32.2357 102.303 32.2357ZM125.342 32.2357C123.821 32.2357 122.551 31.9427 121.532 31.3566C120.527 30.7565 119.767 29.9541 119.251 28.9494C118.748 27.9307 118.497 26.7933 118.497 25.5374C118.497 23.821 118.818 22.1603 119.46 20.5555C120.102 18.9507 120.995 17.5203 122.139 16.2644C123.284 14.9945 124.609 13.9897 126.116 13.2501C127.624 12.5105 129.242 12.1407 130.973 12.1407C132.954 12.1407 134.496 12.5733 135.599 13.4385C136.701 14.3037 137.252 15.3643 137.252 16.6202C137.252 17.6389 136.931 18.56 136.289 19.3833C135.662 20.2066 134.754 20.9183 133.568 21.5184C132.396 22.1185 130.994 22.5999 129.361 22.9627C127.728 23.3256 125.907 23.5558 123.898 23.6535V23.4232C124.916 23.3535 125.872 23.1023 126.765 22.6697C127.658 22.2231 128.468 21.6649 129.193 20.9951C129.919 20.3113 130.547 19.5717 131.077 18.7763C131.608 17.9669 132.012 17.1575 132.291 16.3481C132.584 15.5387 132.731 14.7922 132.731 14.1084C132.731 13.6897 132.647 13.3129 132.48 12.978C132.312 12.6431 132.005 12.4756 131.559 12.4756C130.931 12.4756 130.296 12.7547 129.654 13.3129C129.026 13.8711 128.412 14.6247 127.812 15.5736C127.226 16.5226 126.682 17.5762 126.179 18.7344C125.677 19.8927 125.237 21.0858 124.86 22.3138C124.484 23.5419 124.184 24.721 123.96 25.8514C123.751 26.9817 123.646 27.9725 123.646 28.8238C123.646 29.9541 123.877 30.7286 124.337 31.1473C124.812 31.552 125.433 31.7543 126.2 31.7543C127.233 31.7543 128.251 31.538 129.256 31.1054C130.275 30.6588 131.252 30.0239 132.187 29.2006C133.122 28.3772 133.973 27.3864 134.741 26.2282L135.013 26.3956C134.357 27.3864 133.575 28.3284 132.668 29.2215C131.761 30.1006 130.701 30.8263 129.486 31.3984C128.286 31.9566 126.905 32.2357 125.342 32.2357ZM140.66 31.8171L145.474 12.8734H142.125V12.5594H150.77L146.06 31.8171H140.66ZM147.358 25.5374C147.609 24.5047 147.909 23.3814 148.258 22.1673C148.621 20.9532 149.04 19.7601 149.514 18.5879C150.003 17.4157 150.547 16.3481 151.147 15.3852C151.761 14.4084 152.445 13.6269 153.198 13.0408C153.966 12.4547 154.803 12.1617 155.71 12.1617C156.813 12.1617 157.706 12.4826 158.389 13.1245C159.087 13.7525 159.436 14.5619 159.436 15.5527C159.436 16.5016 159.143 17.304 158.557 17.9599C157.971 18.6018 157.203 18.9228 156.254 18.9228C155.347 18.9228 154.594 18.6367 153.994 18.0646C153.394 17.4924 153.094 16.7598 153.094 15.8667C153.094 14.9875 153.394 14.2758 153.994 13.7316C154.594 13.1873 155.354 12.9152 156.275 12.9152C157.126 12.9152 157.859 13.1455 158.473 13.606C159.087 14.0665 159.394 14.7154 159.394 15.5527H159.101C159.101 14.6317 158.787 13.8921 158.159 13.3339C157.545 12.7617 156.729 12.4756 155.71 12.4756C154.831 12.4756 154.029 12.7687 153.303 13.3548C152.577 13.927 151.914 14.6945 151.314 15.6574C150.714 16.6063 150.177 17.6599 149.703 18.8181C149.242 19.9624 148.83 21.1207 148.467 22.2929C148.119 23.4651 147.819 24.5466 147.567 25.5374H147.358Z" fill="#FCFCFC"/>
</svg>
